<svg xmlns="http://www.w3.org/2000/svg" viewBox="0 0 512 512" width="512" height="512">
  <defs>
    <linearGradient id="bg" x1="0%" y1="0%" x2="100%" y2="100%">
      <stop offset="0%" stop-color="#0a0f1d"/>
      <stop offset="50%" stop-color="#0f172a"/>
      <stop offset="100%" stop-color="#020617"/>
    </linearGradient>
    <linearGradient id="cyanGrad" x1="0%" y1="0%" x2="100%" y2="100%">
      <stop offset="0%" stop-color="#38bdf8"/>
      <stop offset="100%" stop-color="#06b6d4"/>
    </linearGradient>
    <linearGradient id="purpleGrad" x1="0%" y1="0%" x2="100%" y2="100%">
      <stop offset="0%" stop-color="#818cf8"/>
      <stop offset="100%" stop-color="#6366f1"/>
    </linearGradient>
  </defs>
  <rect width="512" height="512" rx="112" fill="url(#bg)"/>
  <circle cx="256" cy="256" r="160" fill="none" stroke="#1e293b" stroke-width="4" stroke-dasharray="8 8"/>
  <circle cx="256" cy="256" r="120" fill="none" stroke="url(#cyanGrad)" stroke-width="6" opacity="0.8"/>
  <!-- Neural transformer core node -->
  <rect x="206" y="206" width="100" height="100" rx="24" fill="#0f172a" stroke="url(#cyanGrad)" stroke-width="8"/>
  <path d="M226 256 H286 M256 226 V286" stroke="#38bdf8" stroke-width="6" stroke-linecap="round"/>
  <!-- Orbiting multi-modal nodes: Code, Image, Video, Privacy Lock -->
  <circle cx="256" cy="120" r="26" fill="#0f172a" stroke="#38bdf8" stroke-width="5"/>
  <path d="M250 114 L244 120 L250 126 M262 114 L268 120 L262 126" stroke="#38bdf8" stroke-width="3" stroke-linecap="round"/>
  <circle cx="392" cy="256" r="26" fill="#0f172a" stroke="#818cf8" stroke-width="5"/>
  <rect x="382" y="246" width="20" height="20" rx="4" fill="none" stroke="#818cf8" stroke-width="3"/>
  <circle cx="256" cy="392" r="26" fill="#0f172a" stroke="#10b981" stroke-width="5"/>
  <polygon points="252,382 264,392 252,402" fill="#10b981"/>
  <circle cx="120" cy="256" r="26" fill="#0f172a" stroke="#f59e0b" stroke-width="5"/>
  <!-- Shield/lock icon inside left circle -->
  <path d="M114 250 C114 246 126 246 126 250 V254 H114 Z M112 254 H128 V264 H112 Z" fill="#f59e0b"/>
  <!-- Connecting busses -->
  <line x1="256" y1="146" x2="256" y2="206" stroke="#38bdf8" stroke-width="3" opacity="0.6"/>
  <line x1="366" y1="256" x2="306" y2="256" stroke="#818cf8" stroke-width="3" opacity="0.6"/>
  <line x1="256" y1="366" x2="256" y2="306" stroke="#10b981" stroke-width="3" opacity="0.6"/>
  <line x1="146" y1="256" x2="206" y2="256" stroke="#f59e0b" stroke-width="3" opacity="0.6"/>
</svg>
